<?xml version="1.0" encoding="UTF-8"?>
<svg width="976px" height="156px" viewBox="0 0 976 156" version="1.1" xmlns="http://www.w3.org/2000/svg" xmlns:xlink="http://www.w3.org/1999/xlink">
    <!-- Generator: Sketch 45.2 (43514) - http://www.bohemiancoding.com/sketch -->
    <title>Group Copy</title>
    <desc>Created with Sketch.</desc>
    <defs></defs>
    <g id="Page-1" stroke="none" stroke-width="1" fill="none" fill-rule="evenodd">
        <g id="Group-Copy">
            <g id="Group-2">
                <path d="M103.976112,78.0119054 L103.984075,78.0238108 L104,78 L103.968149,78 L103.976112,78.0119054 Z M103.968149,78.0476216 L103.968149,78.0476216 L52,155.747573 L0.0318508396,78.0476216 L0,78.0476216 L0.0159254198,78.0238108 L0,78 L0.0318508396,78 L52,0.300048828 L77.9840746,39.1500244 L52,0.300048828 L156,0.300048828 L104.015925,78.0238108 L156,155.747573 L52,155.747573 L103.968149,78.0476216 Z" id="Combined-Shape" fill="#08B5D1" opacity="0.5"></path>
                <polygon id="Combined-Shape-Copy-4" fill="#007FE1" points="52 155.747573 104 78 0 78"></polygon>
                <polygon id="Combined-Shape-Copy-3" fill="#007FE1" points="52 0.300048828 0 78.0476216 104 78.0476216"></polygon>
                <path d="M0.0318508396,78.0476216 L52,155.747573 L103.968149,78.0476216 L104,78.0476216 L103.984075,78.0238108 L104,78 L103.968149,78 L52,0.300048828 L0.0318508396,78 L0,78 L0.0159254198,78.0238108 L0,78.0476216 L0.0318508396,78.0476216 Z" id="Combined-Shape" fill="#08B5D1"></path>
            </g>
            <path d="M236.053394,105.012409 C240.528246,105.012409 244.379495,104.260498 247.607257,102.756654 C250.835019,101.252811 254.209447,98.8503646 257.730642,95.5492442 L266.093439,104.132114 C257.950675,113.155177 248.065802,117.66664 236.438522,117.66664 C224.811243,117.66664 215.16478,113.925427 207.498845,106.442887 C199.83291,98.9603475 196,89.4972777 196,78.0533937 C196,66.6095097 199.906267,57.0730828 207.718919,49.4438268 C215.53157,41.8145708 225.398104,38 237.318817,38 C249.239529,38 259.19776,42.4014278 267.193807,51.2044155 L258.941047,60.2274328 C255.273136,56.7062377 251.807011,54.2487738 248.54257,52.8549674 C245.278129,51.4611611 241.445219,50.7642683 237.043725,50.7642683 C229.267752,50.7642683 222.738968,53.27675 217.457175,58.3017888 C212.175383,63.3268276 209.534526,69.7455765 209.534526,77.5582281 C209.534526,85.3708797 212.157043,91.8996643 217.402157,97.1447778 C222.64727,102.389891 228.864287,105.012409 236.053394,105.012409 Z M322.982462,99.2904953 L315.279887,116.786346 L301.41525,116.786346 L335.306584,39.8706255 L349.17122,39.8706255 L383.062553,116.786346 L369.197917,116.786346 L361.495341,99.2904953 L322.982462,99.2904953 Z M356.213575,87.2964845 L342.238902,55.6058873 L328.264229,87.2964845 L356.213575,87.2964845 Z M452.935918,51.7545995 L452.935918,116.786346 L439.951576,116.786346 L439.951576,51.7545995 L416.623776,51.7545995 L416.623776,39.8706255 L476.263719,39.8706255 L476.263719,51.7545995 L452.935918,51.7545995 Z M531.392154,99.2904953 L523.689578,116.786346 L509.824942,116.786346 L543.716275,39.8706255 L557.580911,39.8706255 L591.472244,116.786346 L577.607608,116.786346 L569.905032,99.2904953 L531.392154,99.2904953 Z M564.623266,87.2964845 L550.648593,55.6058873 L536.67392,87.2964845 L564.623266,87.2964845 Z M632.295896,116.786346 L632.295896,39.8706255 L645.280237,39.8706255 L645.280237,104.462225 L680.381975,104.462225 L680.381975,116.786346 L632.295896,116.786346 Z M754.986923,116.786346 L741.782507,116.786346 L741.782507,86.4161902 L713.17294,39.8706255 L727.367687,39.8706255 L748.384715,74.8623266 L769.401743,39.8706255 L783.59649,39.8706255 L754.986923,86.4161902 L754.986923,116.786346 Z M837.51452,52.3047835 C835.093698,53.8453063 833.883306,56.1743952 833.883306,59.29212 C833.883306,62.4098448 835.093698,64.7939515 837.51452,66.4445117 C839.935341,68.0950719 845.08868,69.8739823 852.97469,71.7812963 C860.860699,73.6886103 866.802627,76.3661456 870.800651,79.8139824 C874.798674,83.2618193 876.797656,88.3418005 876.797656,95.0540786 C876.797656,101.766357 874.266835,107.213124 869.205117,111.394543 C864.143399,115.575962 857.504579,117.66664 849.288457,117.66664 C837.257707,117.66664 826.584245,113.521962 817.267749,105.232482 L825.410472,95.4392074 C833.186445,102.188165 841.255729,105.562593 849.618567,105.562593 C853.799986,105.562593 857.119397,104.663968 859.576897,102.866691 C862.034398,101.069415 863.26313,98.6853078 863.26313,95.7142994 C863.26313,92.7432911 862.107755,90.4325415 859.796971,88.7819813 C857.486187,87.1314211 853.506562,85.6275999 847.857979,84.2704727 C842.209395,82.9133454 837.918003,81.6662742 834.983673,80.5292216 C832.049344,79.392169 829.445166,77.9066871 827.171061,76.0727314 C822.622851,72.6248945 820.34878,67.3431811 820.34878,60.2274328 C820.34878,53.1116844 822.934618,47.6282389 828.106374,43.7769318 C833.278129,39.9256247 839.678539,38 847.307795,38 C852.222796,38 857.101045,38.8069284 861.942688,40.4208095 C866.784332,42.0346906 870.965688,44.3087616 874.486883,47.2430909 L867.554565,57.0363657 C865.28046,54.9823352 862.19946,53.2951212 858.311474,51.9746731 C854.423488,50.6542249 850.590578,49.9940107 846.812629,49.9940107 C843.03468,49.9940107 839.935341,50.7642606 837.51452,52.3047835 Z M952.062824,51.7545995 L952.062824,116.786346 L939.078482,116.786346 L939.078482,51.7545995 L915.750682,51.7545995 L915.750682,39.8706255 L975.390625,39.8706255 L975.390625,51.7545995 L952.062824,51.7545995 Z" id="C-A-T-A-L-Y-S-T" fill="#08B5D1"></path>
        </g>
    </g>
</svg>